<mxfile host="app.diagrams.net" modified="2024-03-12T10:00:23.479Z" agent="Mozilla/5.0 (Windows NT 10.0; Win64; x64; rv:123.0) Gecko/20100101 Firefox/123.0" etag="LhxNSCtiAuvEudcxLGAK" version="24.0.1" type="device">
  <diagram name="1 oldal" id="O07grY8dv0cEGp4q1tDg">
    <mxGraphModel dx="875" dy="481" grid="1" gridSize="10" guides="1" tooltips="1" connect="1" arrows="1" fold="1" page="1" pageScale="1" pageWidth="827" pageHeight="1169" math="0" shadow="0">
      <root>
        <mxCell id="0" />
        <mxCell id="1" parent="0" />
        <mxCell id="786_mQaQIO7tlaPHeYwT-1" value="Food App" style="swimlane;whiteSpace=wrap;html=1;fillColor=#00CC00;" parent="1" vertex="1">
          <mxGeometry width="720" height="470" as="geometry" />
        </mxCell>
        <mxCell id="786_mQaQIO7tlaPHeYwT-2" value="" style="rounded=0;whiteSpace=wrap;html=1;fillColor=#000000;" parent="1" vertex="1">
          <mxGeometry y="20" width="720" height="450" as="geometry" />
        </mxCell>
        <mxCell id="786_mQaQIO7tlaPHeYwT-3" value="" style="rounded=0;whiteSpace=wrap;html=1;fillColor=#000000;strokeColor=#CFCFCF;" parent="1" vertex="1">
          <mxGeometry y="20" width="150" height="450" as="geometry" />
        </mxCell>
        <mxCell id="786_mQaQIO7tlaPHeYwT-4" value="&lt;font color=&quot;#00cc00&quot;&gt;Rendelés felvétele&lt;/font&gt;" style="rounded=0;whiteSpace=wrap;html=1;fillColor=#000000;strokeColor=#00CC00;" parent="1" vertex="1">
          <mxGeometry y="60" width="150" height="50" as="geometry" />
        </mxCell>
        <mxCell id="786_mQaQIO7tlaPHeYwT-5" value="&lt;font style=&quot;font-size: 22px;&quot; color=&quot;#00cc00&quot;&gt;Menü&lt;/font&gt;" style="text;html=1;align=center;verticalAlign=middle;whiteSpace=wrap;rounded=0;" parent="1" vertex="1">
          <mxGeometry y="20" width="60" height="30" as="geometry" />
        </mxCell>
        <mxCell id="786_mQaQIO7tlaPHeYwT-6" value="" style="rounded=0;whiteSpace=wrap;html=1;fillColor=#000000;strokeColor=#00CC00;" parent="1" vertex="1">
          <mxGeometry y="110" width="150" height="50" as="geometry" />
        </mxCell>
        <mxCell id="786_mQaQIO7tlaPHeYwT-7" value="" style="rounded=0;whiteSpace=wrap;html=1;fillColor=#000000;strokeColor=#00CC00;" parent="1" vertex="1">
          <mxGeometry y="160" width="150" height="50" as="geometry" />
        </mxCell>
        <mxCell id="786_mQaQIO7tlaPHeYwT-8" value="&lt;font color=&quot;#ff0000&quot;&gt;Kijelentkezés&lt;/font&gt;" style="rounded=0;whiteSpace=wrap;html=1;fillColor=#000000;strokeColor=#00CC00;" parent="1" vertex="1">
          <mxGeometry x="25" y="430" width="100" height="30" as="geometry" />
        </mxCell>
        <mxCell id="786_mQaQIO7tlaPHeYwT-9" value="" style="rounded=0;whiteSpace=wrap;html=1;fillColor=#000000;strokeColor=#CFCFCF;" parent="1" vertex="1">
          <mxGeometry x="140" y="20" width="290" height="450" as="geometry" />
        </mxCell>
        <mxCell id="786_mQaQIO7tlaPHeYwT-10" style="edgeStyle=orthogonalEdgeStyle;rounded=0;orthogonalLoop=1;jettySize=auto;html=1;exitX=0.75;exitY=1;exitDx=0;exitDy=0;" parent="1" edge="1">
          <mxGeometry relative="1" as="geometry">
            <mxPoint x="370" y="270" as="sourcePoint" />
            <mxPoint x="310" y="270" as="targetPoint" />
          </mxGeometry>
        </mxCell>
        <mxCell id="786_mQaQIO7tlaPHeYwT-11" style="edgeStyle=orthogonalEdgeStyle;rounded=0;orthogonalLoop=1;jettySize=auto;html=1;exitX=0.5;exitY=1;exitDx=0;exitDy=0;" parent="1" edge="1">
          <mxGeometry relative="1" as="geometry">
            <mxPoint x="480" y="57.5" as="sourcePoint" />
            <mxPoint x="480" y="57.5" as="targetPoint" />
          </mxGeometry>
        </mxCell>
        <mxCell id="786_mQaQIO7tlaPHeYwT-12" value="&lt;div&gt;&lt;font color=&quot;#00cc00&quot;&gt;Alkalmazottak kezelése&lt;br&gt;&lt;/font&gt;&lt;/div&gt;" style="rounded=0;whiteSpace=wrap;html=1;fillColor=#000000;strokeColor=#00CC00;" parent="1" vertex="1">
          <mxGeometry y="210" width="140" height="50" as="geometry" />
        </mxCell>
        <mxCell id="786_mQaQIO7tlaPHeYwT-13" value="&lt;div&gt;&lt;font color=&quot;#00cc00&quot;&gt;Statisztikák&lt;br&gt;&lt;/font&gt;&lt;/div&gt;" style="rounded=0;whiteSpace=wrap;html=1;fillColor=#000000;strokeColor=#00CC00;" parent="1" vertex="1">
          <mxGeometry y="260" width="140" height="50" as="geometry" />
        </mxCell>
        <mxCell id="786_mQaQIO7tlaPHeYwT-14" value="&lt;div&gt;&lt;font color=&quot;#00cc00&quot;&gt;Aktív rendelések&lt;/font&gt;&lt;/div&gt;" style="rounded=1;whiteSpace=wrap;html=1;fillColor=#000000;" parent="1" vertex="1">
          <mxGeometry x="10" y="120" width="130" height="30" as="geometry" />
        </mxCell>
        <mxCell id="786_mQaQIO7tlaPHeYwT-51" value="" style="endArrow=none;html=1;rounded=0;exitX=0;exitY=0.5;exitDx=0;exitDy=0;entryX=1;entryY=0.5;entryDx=0;entryDy=0;strokeColor=#CFCFCF;" parent="1" edge="1">
          <mxGeometry width="50" height="50" relative="1" as="geometry">
            <mxPoint x="149.42000000000002" y="474.83000000000004" as="sourcePoint" />
            <mxPoint x="439.42" y="474.83000000000004" as="targetPoint" />
          </mxGeometry>
        </mxCell>
        <mxCell id="786_mQaQIO7tlaPHeYwT-77" value="&lt;div&gt;&lt;font color=&quot;#00cc00&quot;&gt;Futárok&lt;br&gt;&lt;/font&gt;&lt;/div&gt;" style="rounded=1;whiteSpace=wrap;html=1;fillColor=#000000;" parent="1" vertex="1">
          <mxGeometry x="10" y="170" width="130" height="30" as="geometry" />
        </mxCell>
        <mxCell id="4PY4nFEDILdpVImfCxhq-1" value="" style="rounded=0;whiteSpace=wrap;html=1;fillColor=#00CC00;strokeColor=#00CC00;" vertex="1" parent="1">
          <mxGeometry y="310" width="140" height="50" as="geometry" />
        </mxCell>
        <mxCell id="4PY4nFEDILdpVImfCxhq-2" value="&lt;font color=&quot;#00cc00&quot;&gt;Ételek/feltétek felvétele&lt;/font&gt;" style="rounded=1;whiteSpace=wrap;html=1;fillColor=#000000;" vertex="1" parent="1">
          <mxGeometry x="13.129999999999999" y="316.25" width="123.75" height="37.5" as="geometry" />
        </mxCell>
        <mxCell id="4PY4nFEDILdpVImfCxhq-13" value="&lt;div&gt;Törlés&lt;/div&gt;" style="rounded=1;whiteSpace=wrap;html=1;fillColor=#FF8585;strokeColor=#b85450;" vertex="1" parent="1">
          <mxGeometry x="390" y="110" width="40" height="20" as="geometry" />
        </mxCell>
        <mxCell id="4PY4nFEDILdpVImfCxhq-18" value="" style="rounded=1;whiteSpace=wrap;html=1;strokeColor=#00CC00;fillColor=#000000;" vertex="1" parent="1">
          <mxGeometry x="440" y="120" width="270" height="30" as="geometry" />
        </mxCell>
        <mxCell id="4PY4nFEDILdpVImfCxhq-19" value="&lt;font style=&quot;font-size: 21px;&quot; color=&quot;#00cc00&quot;&gt;Étel felvétele/ Szerkesztése&lt;/font&gt;" style="text;html=1;align=center;verticalAlign=middle;whiteSpace=wrap;rounded=0;" vertex="1" parent="1">
          <mxGeometry x="430" y="30" width="290" height="30" as="geometry" />
        </mxCell>
        <mxCell id="4PY4nFEDILdpVImfCxhq-20" value="" style="rounded=1;whiteSpace=wrap;html=1;strokeColor=#00CC00;fillColor=#000000;" vertex="1" parent="1">
          <mxGeometry x="440" y="240" width="270" height="30" as="geometry" />
        </mxCell>
        <mxCell id="4PY4nFEDILdpVImfCxhq-21" value="" style="rounded=1;whiteSpace=wrap;html=1;strokeColor=#00CC00;fillColor=#000000;" vertex="1" parent="1">
          <mxGeometry x="440" y="180" width="270" height="30" as="geometry" />
        </mxCell>
        <mxCell id="4PY4nFEDILdpVImfCxhq-22" value="&lt;div&gt;&lt;font style=&quot;font-size: 14px;&quot; color=&quot;#00cc00&quot;&gt;Megnevezés&lt;/font&gt;&lt;/div&gt;" style="text;html=1;align=center;verticalAlign=middle;whiteSpace=wrap;rounded=0;" vertex="1" parent="1">
          <mxGeometry x="450" y="90" width="80" height="30" as="geometry" />
        </mxCell>
        <mxCell id="4PY4nFEDILdpVImfCxhq-16" value="&lt;div&gt;Módosítás&lt;/div&gt;" style="rounded=1;whiteSpace=wrap;html=1;fillColor=#827C14;" vertex="1" parent="1">
          <mxGeometry x="320" y="110" width="70" height="20" as="geometry" />
        </mxCell>
        <mxCell id="4PY4nFEDILdpVImfCxhq-24" value="&lt;div&gt;Törlés&lt;/div&gt;" style="rounded=1;whiteSpace=wrap;html=1;fillColor=#FF8585;strokeColor=#b85450;" vertex="1" parent="1">
          <mxGeometry x="390" y="140" width="40" height="20" as="geometry" />
        </mxCell>
        <mxCell id="4PY4nFEDILdpVImfCxhq-25" value="&lt;div&gt;Módosítás&lt;/div&gt;" style="rounded=1;whiteSpace=wrap;html=1;fillColor=#827C14;" vertex="1" parent="1">
          <mxGeometry x="320" y="140" width="70" height="20" as="geometry" />
        </mxCell>
        <mxCell id="4PY4nFEDILdpVImfCxhq-26" value="&lt;div&gt;Törlés&lt;/div&gt;" style="rounded=1;whiteSpace=wrap;html=1;fillColor=#FF8585;strokeColor=#b85450;" vertex="1" parent="1">
          <mxGeometry x="390" y="170" width="40" height="20" as="geometry" />
        </mxCell>
        <mxCell id="4PY4nFEDILdpVImfCxhq-27" value="&lt;div&gt;Módosítás&lt;/div&gt;" style="rounded=1;whiteSpace=wrap;html=1;fillColor=#827C14;" vertex="1" parent="1">
          <mxGeometry x="320" y="170" width="70" height="20" as="geometry" />
        </mxCell>
        <mxCell id="4PY4nFEDILdpVImfCxhq-30" value="&lt;font color=&quot;#ffffff&quot;&gt;Étel1&lt;/font&gt;" style="text;strokeColor=none;fillColor=none;align=left;verticalAlign=middle;spacingLeft=4;spacingRight=4;overflow=hidden;points=[[0,0.5],[1,0.5]];portConstraint=eastwest;rotatable=0;whiteSpace=wrap;html=1;" vertex="1" parent="1">
          <mxGeometry x="140" y="195" width="230" height="30" as="geometry" />
        </mxCell>
        <mxCell id="4PY4nFEDILdpVImfCxhq-31" value="&lt;font color=&quot;#ffffff&quot;&gt;Étel2&lt;/font&gt;" style="text;strokeColor=none;fillColor=none;align=left;verticalAlign=middle;spacingLeft=4;spacingRight=4;overflow=hidden;points=[[0,0.5],[1,0.5]];portConstraint=eastwest;rotatable=0;whiteSpace=wrap;html=1;" vertex="1" parent="1">
          <mxGeometry x="140" y="225" width="230" height="30" as="geometry" />
        </mxCell>
        <mxCell id="4PY4nFEDILdpVImfCxhq-32" value="&lt;font color=&quot;#ffffff&quot;&gt;Étel3&lt;/font&gt;" style="text;strokeColor=none;fillColor=none;align=left;verticalAlign=middle;spacingLeft=4;spacingRight=4;overflow=hidden;points=[[0,0.5],[1,0.5]];portConstraint=eastwest;rotatable=0;whiteSpace=wrap;html=1;" vertex="1" parent="1">
          <mxGeometry x="140" y="255" width="230" height="30" as="geometry" />
        </mxCell>
        <mxCell id="4PY4nFEDILdpVImfCxhq-33" value="&lt;div&gt;Törlés&lt;/div&gt;" style="rounded=1;whiteSpace=wrap;html=1;fillColor=#FF8585;strokeColor=#b85450;" vertex="1" parent="1">
          <mxGeometry x="390" y="200" width="40" height="20" as="geometry" />
        </mxCell>
        <mxCell id="4PY4nFEDILdpVImfCxhq-34" value="&lt;div&gt;Módosítás&lt;/div&gt;" style="rounded=1;whiteSpace=wrap;html=1;fillColor=#827C14;" vertex="1" parent="1">
          <mxGeometry x="320" y="200" width="70" height="20" as="geometry" />
        </mxCell>
        <mxCell id="4PY4nFEDILdpVImfCxhq-35" value="&lt;div&gt;Törlés&lt;/div&gt;" style="rounded=1;whiteSpace=wrap;html=1;fillColor=#FF8585;strokeColor=#b85450;" vertex="1" parent="1">
          <mxGeometry x="390" y="230" width="40" height="20" as="geometry" />
        </mxCell>
        <mxCell id="4PY4nFEDILdpVImfCxhq-36" value="&lt;div&gt;Módosítás&lt;/div&gt;" style="rounded=1;whiteSpace=wrap;html=1;fillColor=#827C14;" vertex="1" parent="1">
          <mxGeometry x="320" y="230" width="70" height="20" as="geometry" />
        </mxCell>
        <mxCell id="4PY4nFEDILdpVImfCxhq-37" value="&lt;div&gt;Törlés&lt;/div&gt;" style="rounded=1;whiteSpace=wrap;html=1;fillColor=#FF8585;strokeColor=#b85450;" vertex="1" parent="1">
          <mxGeometry x="390" y="260" width="40" height="20" as="geometry" />
        </mxCell>
        <mxCell id="4PY4nFEDILdpVImfCxhq-38" value="&lt;div&gt;Módosítás&lt;/div&gt;" style="rounded=1;whiteSpace=wrap;html=1;fillColor=#827C14;" vertex="1" parent="1">
          <mxGeometry x="320" y="260" width="70" height="20" as="geometry" />
        </mxCell>
        <mxCell id="4PY4nFEDILdpVImfCxhq-73" value="&lt;font color=&quot;#ffffff&quot;&gt;Étel1&lt;/font&gt;" style="text;strokeColor=none;fillColor=none;align=left;verticalAlign=middle;spacingLeft=4;spacingRight=4;overflow=hidden;points=[[0,0.5],[1,0.5]];portConstraint=eastwest;rotatable=0;whiteSpace=wrap;html=1;" vertex="1" parent="1">
          <mxGeometry x="140" y="280" width="230" height="30" as="geometry" />
        </mxCell>
        <mxCell id="4PY4nFEDILdpVImfCxhq-74" value="&lt;font color=&quot;#ffffff&quot;&gt;Étel2&lt;/font&gt;" style="text;strokeColor=none;fillColor=none;align=left;verticalAlign=middle;spacingLeft=4;spacingRight=4;overflow=hidden;points=[[0,0.5],[1,0.5]];portConstraint=eastwest;rotatable=0;whiteSpace=wrap;html=1;" vertex="1" parent="1">
          <mxGeometry x="140" y="310" width="230" height="30" as="geometry" />
        </mxCell>
        <mxCell id="4PY4nFEDILdpVImfCxhq-75" value="&lt;font color=&quot;#ffffff&quot;&gt;Étel3&lt;/font&gt;" style="text;strokeColor=none;fillColor=none;align=left;verticalAlign=middle;spacingLeft=4;spacingRight=4;overflow=hidden;points=[[0,0.5],[1,0.5]];portConstraint=eastwest;rotatable=0;whiteSpace=wrap;html=1;" vertex="1" parent="1">
          <mxGeometry x="140" y="340" width="230" height="30" as="geometry" />
        </mxCell>
        <mxCell id="4PY4nFEDILdpVImfCxhq-76" value="&lt;div&gt;Törlés&lt;/div&gt;" style="rounded=1;whiteSpace=wrap;html=1;fillColor=#FF8585;strokeColor=#b85450;" vertex="1" parent="1">
          <mxGeometry x="390" y="280" width="40" height="20" as="geometry" />
        </mxCell>
        <mxCell id="4PY4nFEDILdpVImfCxhq-77" value="&lt;div&gt;Módosítás&lt;/div&gt;" style="rounded=1;whiteSpace=wrap;html=1;fillColor=#827C14;" vertex="1" parent="1">
          <mxGeometry x="320" y="280" width="70" height="20" as="geometry" />
        </mxCell>
        <mxCell id="4PY4nFEDILdpVImfCxhq-78" value="&lt;div&gt;Törlés&lt;/div&gt;" style="rounded=1;whiteSpace=wrap;html=1;fillColor=#FF8585;strokeColor=#b85450;" vertex="1" parent="1">
          <mxGeometry x="390" y="310" width="40" height="20" as="geometry" />
        </mxCell>
        <mxCell id="4PY4nFEDILdpVImfCxhq-79" value="&lt;div&gt;Módosítás&lt;/div&gt;" style="rounded=1;whiteSpace=wrap;html=1;fillColor=#827C14;" vertex="1" parent="1">
          <mxGeometry x="320" y="310" width="70" height="20" as="geometry" />
        </mxCell>
        <mxCell id="4PY4nFEDILdpVImfCxhq-80" value="&lt;div&gt;Törlés&lt;/div&gt;" style="rounded=1;whiteSpace=wrap;html=1;fillColor=#FF8585;strokeColor=#b85450;" vertex="1" parent="1">
          <mxGeometry x="390" y="340" width="40" height="20" as="geometry" />
        </mxCell>
        <mxCell id="4PY4nFEDILdpVImfCxhq-81" value="&lt;div&gt;Módosítás&lt;/div&gt;" style="rounded=1;whiteSpace=wrap;html=1;fillColor=#827C14;" vertex="1" parent="1">
          <mxGeometry x="320" y="340" width="70" height="20" as="geometry" />
        </mxCell>
        <mxCell id="4PY4nFEDILdpVImfCxhq-82" value="&lt;font color=&quot;#ffffff&quot;&gt;Étel2&lt;/font&gt;" style="text;strokeColor=none;fillColor=none;align=left;verticalAlign=middle;spacingLeft=4;spacingRight=4;overflow=hidden;points=[[0,0.5],[1,0.5]];portConstraint=eastwest;rotatable=0;whiteSpace=wrap;html=1;" vertex="1" parent="1">
          <mxGeometry x="140" y="395" width="230" height="30" as="geometry" />
        </mxCell>
        <mxCell id="4PY4nFEDILdpVImfCxhq-83" value="&lt;font color=&quot;#ffffff&quot;&gt;Étel3&lt;/font&gt;" style="text;strokeColor=none;fillColor=none;align=left;verticalAlign=middle;spacingLeft=4;spacingRight=4;overflow=hidden;points=[[0,0.5],[1,0.5]];portConstraint=eastwest;rotatable=0;whiteSpace=wrap;html=1;" vertex="1" parent="1">
          <mxGeometry x="140" y="425" width="230" height="30" as="geometry" />
        </mxCell>
        <mxCell id="4PY4nFEDILdpVImfCxhq-84" value="&lt;div&gt;Törlés&lt;/div&gt;" style="rounded=1;whiteSpace=wrap;html=1;fillColor=#FF8585;strokeColor=#b85450;" vertex="1" parent="1">
          <mxGeometry x="390" y="370" width="40" height="20" as="geometry" />
        </mxCell>
        <mxCell id="4PY4nFEDILdpVImfCxhq-85" value="&lt;div&gt;Módosítás&lt;/div&gt;" style="rounded=1;whiteSpace=wrap;html=1;fillColor=#827C14;" vertex="1" parent="1">
          <mxGeometry x="320" y="370" width="70" height="20" as="geometry" />
        </mxCell>
        <mxCell id="4PY4nFEDILdpVImfCxhq-86" value="&lt;div&gt;Törlés&lt;/div&gt;" style="rounded=1;whiteSpace=wrap;html=1;fillColor=#FF8585;strokeColor=#b85450;" vertex="1" parent="1">
          <mxGeometry x="390" y="400" width="40" height="20" as="geometry" />
        </mxCell>
        <mxCell id="4PY4nFEDILdpVImfCxhq-87" value="&lt;div&gt;Módosítás&lt;/div&gt;" style="rounded=1;whiteSpace=wrap;html=1;fillColor=#827C14;" vertex="1" parent="1">
          <mxGeometry x="320" y="400" width="70" height="20" as="geometry" />
        </mxCell>
        <mxCell id="4PY4nFEDILdpVImfCxhq-88" value="&lt;div&gt;Törlés&lt;/div&gt;" style="rounded=1;whiteSpace=wrap;html=1;fillColor=#FF8585;strokeColor=#b85450;" vertex="1" parent="1">
          <mxGeometry x="390" y="430" width="40" height="20" as="geometry" />
        </mxCell>
        <mxCell id="4PY4nFEDILdpVImfCxhq-89" value="&lt;div&gt;Módosítás&lt;/div&gt;" style="rounded=1;whiteSpace=wrap;html=1;fillColor=#827C14;" vertex="1" parent="1">
          <mxGeometry x="320" y="430" width="70" height="20" as="geometry" />
        </mxCell>
        <mxCell id="4PY4nFEDILdpVImfCxhq-90" value="&lt;font color=&quot;#ffffff&quot;&gt;Étel1&lt;/font&gt;" style="text;strokeColor=none;fillColor=none;align=left;verticalAlign=middle;spacingLeft=4;spacingRight=4;overflow=hidden;points=[[0,0.5],[1,0.5]];portConstraint=eastwest;rotatable=0;whiteSpace=wrap;html=1;" vertex="1" parent="1">
          <mxGeometry x="140" y="365" width="230" height="30" as="geometry" />
        </mxCell>
        <mxCell id="4PY4nFEDILdpVImfCxhq-92" value="&lt;font style=&quot;font-size: 14px;&quot; color=&quot;#00cc00&quot;&gt;Áfakulcs&lt;/font&gt;" style="text;html=1;align=center;verticalAlign=middle;whiteSpace=wrap;rounded=0;" vertex="1" parent="1">
          <mxGeometry x="450" y="150" width="60" height="30" as="geometry" />
        </mxCell>
        <mxCell id="4PY4nFEDILdpVImfCxhq-94" value="&lt;div&gt;&lt;font style=&quot;font-size: 14px;&quot; color=&quot;#00cc00&quot;&gt;Ár&lt;/font&gt;&lt;/div&gt;" style="text;html=1;align=center;verticalAlign=middle;whiteSpace=wrap;rounded=0;" vertex="1" parent="1">
          <mxGeometry x="450" y="210" width="20" height="30" as="geometry" />
        </mxCell>
        <mxCell id="4PY4nFEDILdpVImfCxhq-95" value="" style="rounded=1;whiteSpace=wrap;html=1;strokeColor=#00CC00;fillColor=#000000;" vertex="1" parent="1">
          <mxGeometry x="440" y="300" width="270" height="30" as="geometry" />
        </mxCell>
        <mxCell id="4PY4nFEDILdpVImfCxhq-96" value="&lt;div&gt;&lt;font style=&quot;font-size: 14px;&quot; color=&quot;#00cc00&quot;&gt;Allergének&lt;/font&gt;&lt;/div&gt;" style="text;html=1;align=center;verticalAlign=middle;whiteSpace=wrap;rounded=0;" vertex="1" parent="1">
          <mxGeometry x="450" y="270" width="70" height="30" as="geometry" />
        </mxCell>
        <mxCell id="4PY4nFEDILdpVImfCxhq-98" value="" style="rounded=1;whiteSpace=wrap;html=1;fillColor=#000000;fontColor=#ffffff;strokeColor=#005700;" vertex="1" parent="1">
          <mxGeometry x="530" y="348.75" width="40" height="20" as="geometry" />
        </mxCell>
        <mxCell id="4PY4nFEDILdpVImfCxhq-110" value="&lt;div style=&quot;font-size: 26px;&quot;&gt;&lt;font style=&quot;font-size: 26px;&quot;&gt;Ételek&lt;br&gt;&lt;/font&gt;&lt;/div&gt;" style="rounded=1;whiteSpace=wrap;html=1;fillColor=#00CC00;" vertex="1" parent="1">
          <mxGeometry x="140" y="40" width="120" height="45" as="geometry" />
        </mxCell>
        <mxCell id="4PY4nFEDILdpVImfCxhq-97" value="" style="ellipse;whiteSpace=wrap;html=1;aspect=fixed;fillColor=#60a917;fontColor=#ffffff;strokeColor=#2D7600;" vertex="1" parent="1">
          <mxGeometry x="532.5" y="351.25" width="15" height="15" as="geometry" />
        </mxCell>
        <mxCell id="4PY4nFEDILdpVImfCxhq-102" value="&lt;div&gt;&lt;font style=&quot;font-size: 14px;&quot; color=&quot;#00cc00&quot;&gt;Rendelhető&lt;/font&gt;&lt;/div&gt;" style="text;html=1;align=center;verticalAlign=middle;whiteSpace=wrap;rounded=0;" vertex="1" parent="1">
          <mxGeometry x="440" y="343.75" width="80" height="30" as="geometry" />
        </mxCell>
        <mxCell id="4PY4nFEDILdpVImfCxhq-106" value="&lt;div&gt;Mentés&lt;/div&gt;" style="rounded=1;whiteSpace=wrap;html=1;fillColor=#00CC00;" vertex="1" parent="1">
          <mxGeometry x="610" y="343.13" width="100" height="31.25" as="geometry" />
        </mxCell>
        <mxCell id="4PY4nFEDILdpVImfCxhq-109" value="" style="endArrow=none;html=1;rounded=0;exitX=-0.003;exitY=0.116;exitDx=0;exitDy=0;exitPerimeter=0;strokeColor=#00CC00;" edge="1" parent="1" source="4PY4nFEDILdpVImfCxhq-111">
          <mxGeometry width="50" height="50" relative="1" as="geometry">
            <mxPoint x="140" y="79.99999999999993" as="sourcePoint" />
            <mxPoint x="430" y="79" as="targetPoint" />
          </mxGeometry>
        </mxCell>
        <mxCell id="4PY4nFEDILdpVImfCxhq-111" value="&lt;div style=&quot;font-size: 26px;&quot;&gt;&lt;font color=&quot;#00cc00&quot; style=&quot;font-size: 26px;&quot;&gt;Feltétek&lt;/font&gt;&lt;/div&gt;" style="rounded=1;whiteSpace=wrap;html=1;fillColor=#000000;strokeColor=#00CC00;" vertex="1" parent="1">
          <mxGeometry x="260" y="40" width="110" height="50" as="geometry" />
        </mxCell>
        <mxCell id="4PY4nFEDILdpVImfCxhq-3" value="List" style="swimlane;fontStyle=0;childLayout=stackLayout;horizontal=1;startSize=30;horizontalStack=0;resizeParent=1;resizeParentMax=0;resizeLast=0;collapsible=1;marginBottom=0;whiteSpace=wrap;html=1;" vertex="1" parent="1">
          <mxGeometry x="140" y="80" width="230" height="120" as="geometry" />
        </mxCell>
        <mxCell id="4PY4nFEDILdpVImfCxhq-4" value="&lt;font color=&quot;#ffffff&quot;&gt;Étel1&lt;/font&gt;" style="text;strokeColor=none;fillColor=none;align=left;verticalAlign=middle;spacingLeft=4;spacingRight=4;overflow=hidden;points=[[0,0.5],[1,0.5]];portConstraint=eastwest;rotatable=0;whiteSpace=wrap;html=1;" vertex="1" parent="4PY4nFEDILdpVImfCxhq-3">
          <mxGeometry y="30" width="230" height="30" as="geometry" />
        </mxCell>
        <mxCell id="4PY4nFEDILdpVImfCxhq-5" value="&lt;font color=&quot;#ffffff&quot;&gt;Étel2&lt;/font&gt;" style="text;strokeColor=none;fillColor=none;align=left;verticalAlign=middle;spacingLeft=4;spacingRight=4;overflow=hidden;points=[[0,0.5],[1,0.5]];portConstraint=eastwest;rotatable=0;whiteSpace=wrap;html=1;" vertex="1" parent="4PY4nFEDILdpVImfCxhq-3">
          <mxGeometry y="60" width="230" height="30" as="geometry" />
        </mxCell>
        <mxCell id="4PY4nFEDILdpVImfCxhq-6" value="&lt;font color=&quot;#ffffff&quot;&gt;Étel3&lt;/font&gt;" style="text;strokeColor=none;fillColor=none;align=left;verticalAlign=middle;spacingLeft=4;spacingRight=4;overflow=hidden;points=[[0,0.5],[1,0.5]];portConstraint=eastwest;rotatable=0;whiteSpace=wrap;html=1;" vertex="1" parent="4PY4nFEDILdpVImfCxhq-3">
          <mxGeometry y="90" width="230" height="30" as="geometry" />
        </mxCell>
        <mxCell id="4PY4nFEDILdpVImfCxhq-112" value="" style="endArrow=none;html=1;rounded=0;exitX=-0.003;exitY=0.116;exitDx=0;exitDy=0;exitPerimeter=0;strokeColor=#00CC00;" edge="1" parent="1" target="4PY4nFEDILdpVImfCxhq-111">
          <mxGeometry width="50" height="50" relative="1" as="geometry">
            <mxPoint x="140" y="79.99999999999993" as="sourcePoint" />
            <mxPoint x="430" y="79" as="targetPoint" />
          </mxGeometry>
        </mxCell>
      </root>
    </mxGraphModel>
  </diagram>
</mxfile>
